<?xml version="1.0" standalone="no"?><!DOCTYPE svg PUBLIC "-//W3C//DTD SVG 1.1//EN" "http://www.w3.org/Graphics/SVG/1.1/DTD/svg11.dtd"><svg height="147" node-id="1" sillyvg="true" template-height="147" template-width="186" version="1.1" viewBox="0 0 186 147" width="186" xmlns="http://www.w3.org/2000/svg" xmlns:xlink="http://www.w3.org/1999/xlink"><defs node-id="62"></defs><g node-id="174"><path d="M 93.14 27.56 C 98.07 18.24 105.79 10.70 115.23 6.00 C 124.01 1.40 133.92 -0.61 143.80 0.22 C 152.56 0.79 160.99 3.80 168.14 8.90 C 174.79 13.58 179.95 20.08 183.00 27.62 C 185.24 33.16 186.72 38.83 186.28 44.83 C 185.85 50.16 184.72 55.40 182.90 60.43 C 180.75 66.35 178.02 72.05 174.75 77.43 C 168.40 87.83 160.82 97.42 152.16 106.00 C 146.88 111.32 141.28 116.33 135.41 121.00 C 129.06 126.09 122.43 130.82 115.55 135.16 C 108.99 139.27 102.18 142.97 95.17 146.24 C 93.99 146.90 92.55 146.93 91.34 146.32 C 84.36 143.16 77.60 139.52 71.11 135.44 C 63.03 130.43 55.33 124.85 48.05 118.74 C 37.85 110.26 28.57 100.72 20.36 90.30 C 15.33 83.91 10.95 77.03 7.28 69.77 C 3.96 63.38 1.67 56.51 0.49 49.40 C -0.54 43.04 0.02 36.53 2.14 30.45 C 4.63 23.18 8.97 16.69 14.73 11.60 C 20.35 6.66 27.10 3.17 34.38 1.45 C 39.61 0.15 45.01 -0.28 50.38 0.17 C 56.86 0.66 63.20 2.32 69.10 5.05 C 78.78 9.52 86.87 16.82 92.30 26.00 C 92.61 26.45 92.59 27.13 93.14 27.56 Z" fill="#b81e22" fill-rule="nonzero" group-id="1" node-id="66" stroke="none" target-height="147.54" target-width="187.26" target-x="-0.54" target-y="-0.61"></path><path d="M 37.61 39.59 C 37.20 41.01 37.94 41.90 39.02 42.59 C 40.25 42.90 40.77 42.17 41.26 41.20 C 42.53 38.72 43.36 35.99 45.34 33.90 C 47.32 31.81 48.86 29.48 51.29 27.97 C 52.91 27.00 54.53 26.00 56.56 26.00 C 57.97 25.96 59.33 26.57 60.22 27.66 C 61.12 28.76 61.47 30.20 61.16 31.58 C 60.24 36.64 57.16 40.32 53.49 43.58 C 53.13 43.90 52.73 44.19 52.35 44.49 C 51.83 45.20 51.14 45.77 50.35 46.15 C 48.60 46.91 47.17 48.25 46.29 49.94 C 44.58 52.43 43.54 55.31 41.76 57.76 C 41.67 57.87 41.64 58.02 41.66 58.16 C 41.69 58.30 41.77 58.42 41.89 58.50 C 45.46 60.86 48.31 64.22 52.32 65.96 C 52.93 65.71 53.38 66.11 53.87 66.33 C 55.32 67.01 56.85 67.49 58.43 67.78 C 59.64 68.10 60.92 67.63 61.64 66.61 C 62.12 65.92 62.72 65.28 63.64 65.98 C 66.56 68.62 67.31 71.18 65.85 73.64 C 64.83 75.24 63.38 76.51 61.67 77.33 C 58.79 79.03 55.91 78.49 53.10 77.20 C 49.21 75.43 46.49 72.26 43.81 69.09 C 42.41 67.45 40.92 65.89 39.34 64.42 C 38.63 63.74 38.21 63.87 37.60 64.57 C 36.71 65.57 36.05 66.88 34.60 67.23 L 33.08 68.30 C 29.67 71.73 23.08 70.66 21.08 66.30 C 20.28 64.76 20.48 62.90 21.59 61.57 C 22.92 58.21 25.71 56.70 28.99 55.92 C 30.23 55.70 31.48 55.57 32.74 55.52 C 35.34 54.79 35.66 52.29 36.67 50.36 C 37.05 49.63 36.22 49.67 35.78 49.57 C 32.64 48.91 29.98 46.86 28.53 44.00 C 27.00 41.18 26.90 37.80 28.26 34.89 C 28.42 34.48 28.70 34.12 29.08 33.89 C 30.89 30.53 34.11 28.15 37.85 27.39 C 41.14 26.72 44.26 28.58 44.53 31.39 C 44.75 33.63 43.32 35.34 40.37 36.39 C 39.37 37.39 38.45 38.46 37.61 39.59 Z" fill="#ffffff" fill-rule="nonzero" group-id="1" node-id="68" stroke="none" target-height="53.07" target-width="47.03" target-x="20.28" target-y="25.96"></path><path d="M 69.77 73.65 C 71.26 71.26 73.43 69.37 76.00 68.21 C 78.09 66.84 80.34 67.01 82.61 67.55 C 83.28 67.71 84.07 67.78 84.25 68.68 C 87.15 70.47 87.71 73.25 87.43 76.34 C 87.09 79.23 86.47 82.07 85.58 84.84 C 85.07 86.57 85.70 87.48 87.52 87.60 C 88.57 87.61 89.59 87.26 90.40 86.60 C 90.59 86.27 90.83 85.97 91.12 85.71 C 93.42 84.11 94.27 81.71 94.70 79.12 C 94.88 77.48 95.45 75.90 96.35 74.51 C 97.17 73.51 97.35 72.15 98.35 71.33 C 99.35 70.51 100.44 69.55 101.87 70.05 C 102.93 70.36 103.63 71.38 103.53 72.48 C 103.38 74.13 102.99 75.74 102.35 77.27 C 101.56 79.11 100.55 80.86 99.35 82.47 C 98.64 83.41 98.77 84.79 98.49 85.95 C 97.23 91.33 95.29 96.53 92.71 101.42 C 91.40 104.11 89.44 106.44 87.01 108.18 C 84.77 110.48 80.12 110.47 77.43 108.80 C 75.04 107.32 73.75 104.14 74.69 101.90 L 75.33 99.84 C 75.01 98.37 76.08 97.62 76.96 96.84 C 77.50 96.37 78.12 96.84 78.60 97.20 C 79.42 97.96 80.32 98.63 81.28 99.20 C 83.72 100.41 85.84 99.61 87.85 98.14 C 90.60 96.51 91.66 93.70 93.02 90.82 C 91.51 91.89 90.30 93.00 89.00 93.94 C 87.80 94.75 86.53 95.44 85.20 96.00 C 83.13 96.79 81.01 97.15 79.01 95.79 C 76.37 93.99 75.72 92.02 76.61 88.92 C 77.08 87.16 77.91 85.51 79.05 84.08 C 80.49 82.26 81.71 80.27 82.68 78.16 C 83.19 77.11 83.40 75.94 83.27 74.78 C 83.21 72.05 81.76 71.29 79.36 72.72 C 78.38 73.53 77.68 74.64 77.36 75.87 C 76.87 77.74 77.16 79.73 78.15 81.39 C 78.60 82.11 78.96 82.88 77.99 83.52 C 76.79 84.70 75.55 85.79 73.69 85.62 C 73.11 85.98 72.36 85.94 71.82 85.51 C 69.88 84.59 68.52 82.76 68.19 80.64 C 67.75 78.10 68.00 75.70 69.77 73.65 Z" fill="#ffffff" fill-rule="nonzero" group-id="1" node-id="70" stroke="none" target-height="43.640007" target-width="35.879997" target-x="67.75" target-y="66.84"></path><path d="M 84.45 44.58 C 84.52 44.21 84.56 43.84 84.55 43.46 C 84.35 41.12 84.69 40.41 86.37 39.85 C 88.25 39.18 90.36 39.72 91.67 41.23 C 92.67 42.58 92.26 43.95 91.95 45.32 C 91.77 45.97 91.67 46.64 91.67 47.32 L 91.67 47.55 C 91.17 49.72 89.94 51.55 89.19 53.67 C 88.88 54.26 88.65 54.88 88.50 55.53 C 88.50 56.16 88.27 56.96 89.39 56.85 C 91.09 56.20 91.80 54.66 92.55 53.21 C 93.71 51.05 94.53 48.73 95.00 46.33 C 95.10 45.57 95.45 44.87 96.00 44.33 C 96.34 43.05 96.00 41.52 97.38 40.62 C 98.78 39.66 100.65 39.74 101.96 40.82 C 103.05 41.61 104.07 44.12 103.62 45.26 C 102.68 47.64 102.34 50.20 101.09 52.50 C 99.09 56.12 97.09 59.60 93.44 61.84 C 93.37 61.84 93.38 62.04 93.36 62.15 C 90.83 64.42 87.56 65.69 84.16 65.73 C 80.16 65.73 77.99 63.09 78.52 59.10 C 78.82 56.86 79.97 55.04 80.95 53.10 C 82.34 50.70 83.35 48.11 83.95 45.40 C 83.97 45.06 84.15 44.75 84.45 44.58 Z" fill="#ffffff" fill-rule="nonzero" group-id="1" node-id="72" stroke="none" target-height="26.550003" target-width="26.080002" target-x="77.99" target-y="39.18"></path><path d="M 120.32 57.00 C 122.62 57.90 124.53 57.00 126.37 55.70 C 126.68 55.17 127.19 54.79 127.79 54.65 C 128.82 53.75 129.69 52.68 130.36 51.49 C 130.67 51.00 130.85 49.99 131.68 50.33 C 132.51 50.67 132.11 51.54 132.00 52.22 C 131.64 53.66 131.00 55.02 130.12 56.22 C 128.53 58.84 126.83 61.37 123.99 62.85 C 122.99 64.32 121.39 64.71 119.87 65.09 C 116.40 65.94 113.03 65.82 110.14 63.31 C 106.91 60.51 106.74 56.86 107.54 53.08 C 107.83 51.25 108.73 49.57 110.09 48.32 C 112.90 44.51 116.31 41.49 121.02 40.21 C 123.26 39.51 125.69 39.83 127.67 41.08 C 130.10 42.63 130.47 46.08 128.67 48.85 C 127.45 50.52 125.96 51.98 124.28 53.18 C 122.91 54.80 120.92 55.04 118.98 55.47 C 119.00 56.44 120.07 56.36 120.32 57.00 Z" fill="#ffffff" fill-rule="nonzero" group-id="1" node-id="74" stroke="none" target-height="26.430004" target-width="25.769997" target-x="106.74" target-y="39.51"></path><path d="M 59.77 47.32 C 61.11 45.68 62.60 44.16 64.22 42.80 C 66.42 41.15 68.74 39.99 71.69 40.49 C 73.90 40.87 74.83 42.32 75.35 44.17 C 76.26 47.45 75.25 50.50 73.82 53.40 C 72.04 57.03 69.82 60.40 66.37 62.64 C 64.64 64.64 61.91 65.44 59.37 64.70 C 57.29 64.18 55.79 62.38 55.66 60.24 C 55.23 57.76 55.51 55.21 56.46 52.88 C 57.26 50.86 58.38 48.98 59.77 47.32 Z" fill="#ffffff" fill-rule="nonzero" group-id="1" node-id="76" stroke="none" target-height="25.45" target-width="21.030003" target-x="55.23" target-y="39.99"></path><path d="M 124.71 82.63 C 125.27 82.07 125.51 81.27 125.35 80.49 C 125.23 79.06 125.62 78.08 127.25 78.03 C 128.73 77.97 130.03 79.01 130.31 80.46 C 130.36 81.40 130.36 82.35 130.31 83.29 C 130.43 83.83 130.39 84.39 130.22 84.92 C 129.47 86.61 128.53 88.21 127.80 89.92 C 127.29 91.11 127.59 91.42 128.91 91.22 C 131.43 89.77 132.12 87.16 133.07 84.71 C 133.26 84.22 133.17 83.59 133.73 83.27 C 134.31 82.27 133.90 81.02 134.43 79.93 C 134.96 78.84 135.43 78.27 136.59 78.38 C 137.77 78.37 138.84 79.08 139.30 80.17 C 139.84 81.75 139.71 83.47 138.94 84.95 C 138.08 87.06 137.16 89.15 136.27 91.25 C 136.70 91.81 137.15 91.25 137.59 91.25 C 138.95 90.32 139.47 88.78 140.29 87.45 C 140.51 87.09 140.54 86.45 141.11 86.64 C 141.68 86.83 141.44 87.33 141.34 87.75 C 140.34 91.85 138.62 95.43 134.71 97.55 C 133.60 98.80 132.25 98.55 131.10 97.82 C 130.21 97.23 129.08 97.12 128.10 97.54 C 126.64 98.23 124.97 98.33 123.43 97.83 C 120.85 96.83 119.60 95.09 120.30 92.42 C 121.31 88.97 122.80 85.67 124.71 82.63 Z" fill="#ffffff" fill-rule="nonzero" group-id="1" node-id="78" stroke="none" target-height="20.830002" target-width="22.079994" target-x="119.6" target-y="77.97"></path><path d="M 143.32 45.56 C 142.43 43.41 142.32 41.04 141.38 38.89 C 139.72 35.23 137.90 31.77 133.99 29.97 C 133.22 29.62 132.43 29.51 131.66 29.24 C 131.49 29.01 130.87 29.24 131.02 28.68 C 135.84 28.04 138.67 24.99 140.56 20.79 C 141.83 17.78 142.50 14.56 142.56 11.30 C 142.58 10.70 142.67 10.11 142.81 9.53 C 143.54 17.90 145.46 25.53 154.61 28.88 C 152.73 29.21 150.99 30.08 149.61 31.40 C 146.62 34.52 144.66 38.49 144.00 42.76 C 143.89 43.47 143.76 44.18 143.63 44.88 C 143.48 45.09 143.56 45.40 143.32 45.56 Z" fill="#ffffff" fill-rule="nonzero" group-id="1" node-id="80" stroke="none" target-height="36.030003" target-width="23.740005" target-x="130.87" target-y="9.53"></path><path d="M 34.64 67.18 C 36.03 65.89 37.28 64.46 38.37 62.91 C 42.28 65.80 44.76 69.91 48.23 73.15 C 50.47 75.40 53.28 77.00 56.36 77.79 C 58.27 78.22 59.96 77.48 61.75 77.28 C 60.89 80.03 58.66 81.16 56.17 81.88 C 52.17 83.06 48.82 81.28 45.78 78.93 C 42.31 76.24 39.84 72.57 36.78 69.44 C 36.08 68.69 35.36 67.93 34.64 67.18 Z" fill="#7e191e" fill-rule="nonzero" group-id="1" node-id="82" stroke="none" target-height="20.149998" target-width="27.11" target-x="34.64" target-y="62.91"></path><path d="M 105.43 84.30 C 106.88 82.19 108.74 80.39 110.89 79.00 C 112.39 78.04 114.29 77.93 115.89 78.71 C 117.37 79.55 118.20 81.21 117.99 82.90 C 117.81 88.81 114.83 93.04 110.06 96.20 C 109.04 97.11 107.64 97.47 106.30 97.17 C 104.96 96.88 103.85 95.95 103.31 94.69 C 101.67 90.79 103.10 87.44 105.43 84.30 Z" fill="#ffffff" fill-rule="nonzero" group-id="1" node-id="84" stroke="none" target-height="19.54" target-width="16.529999" target-x="101.67" target-y="77.93"></path><path d="M 110.09 48.32 C 108.92 50.66 107.75 52.95 107.55 55.68 C 107.27 58.33 108.24 60.95 110.16 62.79 C 112.09 64.62 114.76 65.46 117.39 65.05 C 119.73 64.81 121.98 64.06 123.99 62.85 C 123.61 64.73 122.15 65.67 120.69 66.55 C 117.37 68.55 113.87 69.95 109.89 69.03 C 105.45 68.03 103.13 64.63 103.39 60.20 C 103.66 55.50 106.06 51.81 109.39 48.62 C 109.57 48.42 109.82 48.31 110.09 48.32 Z" fill="#7e191e" fill-rule="nonzero" group-id="1" node-id="86" stroke="none" target-height="21.639996" target-width="20.86" target-x="103.13" target-y="48.31"></path><path d="M 124.71 82.63 C 124.32 84.99 122.83 86.90 121.99 89.08 C 121.34 90.41 120.89 91.82 120.65 93.28 C 120.33 96.72 123.77 98.05 126.04 97.72 C 126.58 97.61 127.11 97.46 127.63 97.26 C 128.99 96.80 130.24 96.37 131.63 97.60 C 132.46 98.37 133.73 97.96 134.78 97.60 C 133.63 100.60 129.90 103.15 127.71 101.86 C 125.92 100.80 124.62 101.18 123.03 101.77 C 121.96 102.09 120.83 102.12 119.74 101.87 C 117.28 101.43 116.09 99.12 116.86 96.14 C 117.26 94.77 117.77 93.43 118.40 92.14 C 119.64 89.35 121.40 86.76 121.40 83.52 C 121.42 82.10 122.61 81.84 124.71 82.63 Z" fill="#7e191e" fill-rule="nonzero" group-id="1" node-id="88" stroke="none" target-height="21.310005" target-width="18.690002" target-x="116.09" target-y="81.84"></path><path d="M 29.08 33.90 C 26.15 40.00 28.43 46.00 33.91 48.59 C 35.11 49.11 36.42 49.35 37.73 49.30 C 36.78 51.30 35.86 53.08 35.00 54.92 C 34.47 56.07 33.53 55.57 32.70 55.57 C 33.42 54.25 33.23 53.85 31.55 53.41 C 23.00 51.14 21.21 41.34 27.07 35.33 C 27.62 34.77 28.00 33.81 29.08 33.90 Z" fill="#7e191e" fill-rule="nonzero" group-id="1" node-id="90" stroke="none" target-height="22.259998" target-width="16.52" target-x="21.21" target-y="33.81"></path><path d="M 84.45 44.58 C 84.23 48.22 82.31 51.21 80.77 54.35 C 79.99 55.73 79.39 57.20 79.00 58.73 C 78.00 64.03 81.79 65.83 86.00 65.17 C 88.72 64.73 90.90 63.17 93.36 62.12 C 91.29 65.61 87.77 67.12 84.36 68.68 C 81.68 67.23 78.91 67.59 76.12 68.21 C 73.75 65.32 74.73 62.46 76.12 59.59 C 77.68 56.45 79.66 53.49 80.28 49.94 C 80.45 48.85 80.45 47.74 80.28 46.65 C 80.07 45.17 82.75 43.13 84.10 43.71 C 84.41 43.87 84.34 44.28 84.45 44.58 Z" fill="#7e191e" fill-rule="nonzero" group-id="1" node-id="92" stroke="none" target-height="25.55" target-width="19.61" target-x="73.75" target-y="43.13"></path><path d="M 83.07 78.15 C 82.51 79.92 81.63 81.56 80.46 83.00 C 78.88 84.87 77.68 87.04 76.93 89.38 C 76.46 91.12 76.44 92.87 77.68 94.24 C 79.10 95.93 81.35 96.67 83.49 96.15 C 85.49 95.71 87.11 94.40 88.94 93.56 C 89.77 93.32 89.88 93.63 89.54 94.32 C 87.84 95.91 86.01 97.36 84.07 98.65 C 83.26 99.33 82.23 99.69 81.18 99.65 C 80.16 99.22 79.25 98.56 78.54 97.71 C 77.68 96.77 77.06 96.71 76.45 97.90 C 76.10 98.58 75.70 99.24 75.32 99.90 C 71.57 97.75 72.32 94.00 74.08 90.42 C 75.19 88.19 77.23 86.57 78.18 84.24 C 78.25 84.03 78.31 83.82 78.36 83.61 C 78.71 82.30 78.90 80.96 78.94 79.61 C 78.94 77.90 78.64 76.46 76.94 75.61 C 77.37 74.44 77.72 73.22 78.99 72.61 C 81.31 72.71 83.17 74.57 83.27 76.89 C 83.27 77.32 83.21 77.74 83.07 78.15 Z" fill="#7e191e" fill-rule="nonzero" group-id="1" node-id="94" stroke="none" target-height="27.29" target-width="18.309998" target-x="71.57" target-y="72.61"></path><path d="M 59.77 47.32 C 58.55 49.76 57.07 52.09 56.37 54.78 C 55.68 56.84 55.68 59.07 56.37 61.13 C 57.99 65.08 60.86 65.13 64.72 63.63 C 65.31 63.35 65.86 63.01 66.39 62.63 C 65.94 64.08 64.55 64.77 63.74 65.92 C 63.18 65.99 62.61 65.73 62.25 66.57 C 61.51 68.30 59.97 68.44 58.34 68.16 C 56.21 67.81 54.17 67.04 52.34 65.90 C 51.03 62.58 51.91 59.37 53.10 56.31 C 54.46 53.06 56.51 50.13 59.10 47.74 C 59.31 47.58 59.53 47.44 59.77 47.32 Z" fill="#7e1a1e" fill-rule="nonzero" group-id="1" node-id="96" stroke="none" target-height="21.120003" target-width="15.360001" target-x="51.03" target-y="47.32"></path><path d="M 74.68 101.94 C 74.47 109.41 81.20 110.82 85.60 108.72 C 86.04 108.51 86.53 108.39 87.00 108.22 C 84.80 111.84 81.54 113.91 77.37 113.84 C 71.37 113.73 69.51 108.58 71.26 103.84 C 71.39 103.48 71.60 103.16 71.76 102.84 C 72.59 101.09 73.08 100.93 74.68 101.94 Z" fill="#7e191e" fill-rule="nonzero" group-id="1" node-id="98" stroke="none" target-height="12.980003" target-width="17.489998" target-x="69.51" target-y="100.93"></path><path d="M 21.55 61.62 C 20.57 63.52 20.82 65.82 22.20 67.45 C 23.74 69.24 26.07 70.13 28.41 69.82 C 30.05 69.61 31.63 69.09 33.08 68.30 C 30.90 72.59 24.90 75.15 20.52 73.52 C 18.84 73.03 17.55 71.69 17.10 70.00 C 16.48 67.36 17.39 64.60 19.46 62.85 C 20.00 62.31 20.59 61.55 21.55 61.62 Z" fill="#7e191e" fill-rule="nonzero" group-id="1" node-id="100" stroke="none" target-height="13.600002" target-width="16.600002" target-x="16.48" target-y="61.55"></path><path d="M 69.77 73.65 C 68.71 76.00 68.00 78.45 68.68 81.12 C 69.31 83.48 71.27 85.25 73.68 85.65 C 74.07 86.56 74.33 87.54 73.46 88.25 C 72.12 89.33 70.66 90.33 68.80 89.75 C 65.84 88.93 63.90 86.11 64.18 83.06 C 64.36 79.19 66.46 75.66 69.77 73.65 Z" fill="#7e191e" fill-rule="nonzero" group-id="1" node-id="102" stroke="none" target-height="16.68" target-width="10.43" target-x="63.9" target-y="73.65"></path><path d="M 105.43 84.30 C 104.51 86.14 103.77 88.07 103.22 90.06 C 102.55 92.95 103.72 95.65 106.10 96.68 C 107.58 97.32 108.76 96.34 110.10 96.22 C 110.16 96.37 110.31 96.55 110.27 96.65 C 109.13 99.01 104.97 101.24 102.37 100.90 C 100.49 100.47 99.12 98.83 99.04 96.90 C 98.92 94.03 99.72 91.19 101.31 88.80 C 102.40 87.05 103.45 85.24 105.43 84.30 Z" fill="#7e1a1e" fill-rule="nonzero" group-id="1" node-id="104" stroke="none" target-height="16.939995" target-width="11.389999" target-x="98.92" target-y="84.3"></path><path d="M 157.93 49.00 C 158.27 52.80 159.73 55.85 163.58 57.40 C 159.72 59.22 158.47 62.66 157.94 66.54 L 157.82 66.80 L 157.70 66.54 C 157.42 64.45 156.71 62.44 155.62 60.64 C 154.64 59.00 153.01 57.86 151.13 57.51 C 153.26 57.23 155.10 55.88 156.00 53.93 C 156.96 52.08 157.43 50.01 157.37 47.93 C 158.22 47.93 157.57 48.73 157.93 49.00 Z" fill="#ffffff" fill-rule="nonzero" group-id="1" node-id="106" stroke="none" target-height="18.870003" target-width="12.449997" target-x="151.13" target-y="47.93"></path><path d="M 96.00 44.30 C 95.00 48.24 94.06 52.15 91.68 55.56 C 91.13 56.38 90.33 57.01 89.40 57.35 C 88.47 56.71 89.12 55.96 89.40 55.35 C 90.38 52.71 91.17 50.01 91.78 47.26 L 91.78 47.26 C 92.37 45.23 93.54 43.88 96.00 44.30 Z" fill="#7f1a1e" fill-rule="nonzero" group-id="1" node-id="108" stroke="none" target-height="13.469997" target-width="7.529999" target-x="88.47" target-y="43.88"></path><path d="M 96.36 74.55 C 95.67 77.40 95.01 80.27 94.18 83.06 C 93.71 84.63 92.04 85.83 90.41 86.64 C 90.90 82.86 91.65 79.17 94.00 76.00 C 94.48 75.13 95.37 74.58 96.36 74.55 Z" fill="#7e1a1e" fill-rule="nonzero" group-id="1" node-id="110" stroke="none" target-height="12.089996" target-width="5.949997" target-x="90.41" target-y="74.55"></path><path d="M 130.00 84.80 C 130.06 84.28 130.00 83.73 130.37 83.29 C 131.51 82.98 132.64 82.00 133.79 83.29 C 133.41 86.10 132.19 88.72 130.29 90.82 C 129.92 91.21 129.46 91.50 128.94 91.64 C 127.94 91.71 128.34 91.01 128.42 90.58 C 128.76 88.59 129.52 86.74 130.00 84.80 Z" fill="#7f1a1e" fill-rule="nonzero" group-id="1" node-id="112" stroke="none" target-height="9.709999" target-width="5.849991" target-x="127.94" target-y="82"></path><path d="M 77.00 75.56 C 77.97 75.40 78.89 76.04 79.08 77.00 C 79.54 79.26 79.85 81.53 78.36 83.60 L 77.96 83.60 C 78.30 83.03 78.23 82.31 77.78 81.82 C 76.53 79.98 76.24 77.65 77.00 75.56 Z" fill="#b81e22" fill-rule="nonzero" group-id="1" node-id="114" stroke="none" target-height="8.199997" target-width="3.6100006" target-x="76.24" target-y="75.4"></path><path d="M 45.34 33.94 C 43.94 36.78 42.56 39.63 41.14 42.45 C 40.56 43.60 39.82 43.63 39.02 42.63 C 40.33 39.23 42.51 36.24 45.34 33.94 Z" fill="#801b1f" fill-rule="nonzero" group-id="1" node-id="116" stroke="none" target-height="9.690002" target-width="6.3199997" target-x="39.02" target-y="33.94"></path><path d="M 120.32 57.00 C 119.90 56.92 119.49 56.78 119.11 56.57 C 118.67 56.22 117.93 55.85 118.05 55.27 C 118.17 54.69 118.96 55.00 119.45 54.93 C 121.16 54.62 122.80 54.03 124.30 53.17 C 123.45 54.87 122.05 56.22 120.32 57.00 Z" fill="#801b1f" fill-rule="nonzero" group-id="1" node-id="118" stroke="none" target-height="3.8300018" target-width="6.3700027" target-x="117.93" target-y="53.17"></path><path d="M 46.33 49.89 C 46.57 48.21 47.73 46.80 49.33 46.23 C 50.39 45.74 51.39 45.14 52.33 44.44 C 50.88 46.85 48.59 48.36 46.33 49.89 Z" fill="#811d21" fill-rule="nonzero" group-id="1" node-id="120" stroke="none" target-height="5.450001" target-width="6" target-x="46.33" target-y="44.44"></path><path d="M 37.61 39.59 C 37.70 37.80 39.00 37.00 40.37 36.34 C 40.25 37.41 39.77 38.41 39.00 39.17 C 38.58 39.49 38.24 40.00 37.61 39.59 Z" fill="#811c1f" fill-rule="nonzero" group-id="1" node-id="122" stroke="none" target-height="3.6599998" target-width="2.7599983" target-x="37.61" target-y="36.34"></path><path d="M 143.32 45.56 L 143.61 44.88 L 143.61 50.72 C 142.82 50.17 143.03 49.72 143.05 49.23 C 143.35 48.73 142.96 48.11 143.33 47.63 Z" fill="#d2686a" fill-rule="nonzero" group-id="1" node-id="124" stroke="none" target-height="5.84" target-width="0.7899933" target-x="142.82" target-y="44.88"></path><path d="M 131.00 28.68 L 131.64 29.24 C 130.63 29.36 129.61 29.29 128.64 29.01 C 129.38 28.68 130.20 28.56 131.00 28.68 Z" fill="#fbefef" fill-rule="nonzero" group-id="1" node-id="126" stroke="none" target-height="0.80000114" target-width="3" target-x="128.64" target-y="28.56"></path><path d="M 137.61 91.26 C 137.34 91.66 136.89 91.91 136.41 91.93 C 135.55 91.93 135.85 91.56 136.29 91.24 C 136.73 90.92 137.17 90.85 137.61 91.26 Z" fill="#99312e" fill-rule="nonzero" group-id="1" node-id="128" stroke="none" target-height="1.0800018" target-width="2.0599976" target-x="135.55" target-y="90.85"></path><path d="M 127.79 54.66 C 127.33 55.03 127.07 55.66 126.37 55.71 C 126.37 54.71 127.00 54.54 127.79 54.66 Z" fill="#8e1f26" fill-rule="nonzero" group-id="1" node-id="130" stroke="none" target-height="1.1699982" target-width="1.4199982" target-x="126.37" target-y="54.54"></path><path d="M 157.93 49.00 L 157.37 48.00 L 157.37 47.10 C 157.90 47.57 158.12 48.31 157.93 49.00 Z" fill="#e9b5b3" fill-rule="nonzero" group-id="1" node-id="132" stroke="none" target-height="1.9000015" target-width="0.75" target-x="157.37" target-y="47.1"></path><path d="M 157.70 66.50 C 157.78 66.52 157.86 66.52 157.94 66.50 C 158.06 66.99 158.02 67.51 157.82 67.97 C 157.62 67.51 157.58 66.99 157.70 66.50 Z" fill="#cc514e" fill-rule="nonzero" group-id="1" node-id="134" stroke="none" target-height="1.4700012" target-width="0.47999573" target-x="157.58" target-y="66.5"></path><path d="M 143.33 47.63 C 143.24 48.16 143.51 48.76 143.05 49.23 C 143.12 48.69 142.68 48.07 143.33 47.63 Z" fill="#de9091" fill-rule="nonzero" group-id="1" node-id="136" stroke="none" target-height="1.5999985" target-width="0.83000183" target-x="142.68" target-y="47.63"></path><path d="M 52.74 34.25 C 53.28 33.00 54.09 31.89 55.12 31.00 C 56.32 31.20 57.03 31.78 56.77 33.12 C 55.53 35.84 54.11 38.42 51.41 40.01 C 51.05 39.21 51.66 38.67 51.94 38.06 C 52.63 36.92 52.92 35.57 52.74 34.25 Z" fill="#7f1a1e" fill-rule="nonzero" group-id="1" node-id="138" stroke="none" target-height="9.009998" target-width="5.9799995" target-x="51.05" target-y="31"></path><path d="M 32.73 59.80 C 31.45 61.80 30.79 63.64 28.82 64.53 C 28.24 64.87 27.49 64.74 27.06 64.21 C 26.52 63.64 26.68 63.09 27.06 62.45 C 28.30 60.52 30.24 60.18 32.73 59.80 Z" fill="#7f1b1f" fill-rule="nonzero" group-id="1" node-id="140" stroke="none" target-height="5.0700035" target-width="6.209999" target-x="26.52" target-y="59.8"></path><path d="M 52.74 34.25 C 53.55 34.40 53.35 34.95 53.27 35.51 C 53.04 37.16 52.06 38.51 51.41 39.98 C 51.14 40.74 50.35 40.78 49.68 41.30 C 50.23 38.77 51.27 36.38 52.74 34.25 Z" fill="#b82023" fill-rule="nonzero" group-id="1" node-id="142" stroke="none" target-height="7.049999" target-width="3.869999" target-x="49.68" target-y="34.25"></path><path d="M 56.77 33.09 C 56.52 32.20 55.93 31.45 55.12 31.00 C 55.12 31.00 55.12 30.86 55.12 30.84 C 55.84 30.47 56.75 29.44 57.32 30.17 C 57.89 30.90 57.54 32.21 56.77 33.09 Z" fill="#bb2927" fill-rule="nonzero" group-id="1" node-id="144" stroke="none" target-height="3.6499996" target-width="2.7700005" target-x="55.12" target-y="29.44"></path><path d="M 81.18 99.62 C 83.77 98.54 86.13 96.98 88.13 95.00 C 88.44 94.60 88.88 94.33 89.38 94.25 C 90.11 95.25 89.38 96.00 89.00 96.83 C 88.73 97.37 88.42 97.89 88.07 98.38 C 86.26 100.20 83.51 100.70 81.18 99.62 Z" fill="#b81f23" fill-rule="nonzero" group-id="1" node-id="146" stroke="none" target-height="6.449997" target-width="8.93" target-x="81.18" target-y="94.25"></path><path d="M 88.07 98.33 C 87.86 97.33 88.61 96.69 88.96 95.92 C 89.22 95.38 89.36 94.80 89.38 94.20 C 89.63 93.72 89.38 93.55 88.94 93.54 C 90.16 92.31 91.84 91.60 92.82 90.08 C 92.90 89.96 93.21 89.95 93.42 89.96 C 93.42 89.96 93.59 90.23 93.56 90.32 C 92.30 93.38 91.24 96.58 88.07 98.33 Z" fill="#801b1f" fill-rule="nonzero" group-id="1" node-id="148" stroke="none" target-height="8.380005" target-width="5.7299957" target-x="87.86" target-y="89.95"></path><path d="M 83.07 78.15 C 83.00 75.15 81.80 73.52 79.07 72.58 C 79.84 71.51 81.27 71.16 82.45 71.74 C 83.41 72.23 83.94 73.29 83.73 74.35 C 83.64 75.64 84.00 77.00 83.07 78.15 Z" fill="#b81f23" fill-rule="nonzero" group-id="1" node-id="150" stroke="none" target-height="6.989998" target-width="4.9300003" target-x="79.07" target-y="71.16"></path><path d="M 91.68 47.26 C 91.80 49.96 90.81 52.40 89.95 54.88 C 89.67 55.68 89.06 56.41 89.35 57.35 C 88.00 57.25 87.56 56.35 88.16 54.89 C 88.76 53.43 89.29 52.19 89.90 50.89 C 90.51 49.59 91.09 48.46 91.68 47.26 Z" fill="#b81f23" fill-rule="nonzero" group-id="1" node-id="152" stroke="none" target-height="10.09" target-width="4.2400055" target-x="87.56" target-y="47.26"></path><path d="M 118.61 48.23 C 119.13 46.66 120.25 45.35 121.73 44.60 C 123.62 44.60 124.33 45.09 124.73 46.60 C 123.95 48.49 122.85 50.07 120.73 50.66 C 121.16 48.84 119.57 48.81 118.61 48.23 Z" fill="#7f1a1e" fill-rule="nonzero" group-id="1" node-id="154" stroke="none" target-height="6.0600014" target-width="6.1200027" target-x="118.61" target-y="44.6"></path><path d="M 118.61 48.23 C 118.89 48.23 119.17 48.23 119.44 48.23 C 121.28 48.32 121.63 48.99 120.71 50.61 C 120.13 51.83 118.95 51.98 117.84 52.23 C 117.53 52.30 117.25 52.13 117.36 51.79 C 117.75 50.61 117.54 49.19 118.61 48.23 Z" fill="#b91f23" fill-rule="nonzero" group-id="1" node-id="156" stroke="none" target-height="4.0699997" target-width="4.3799973" target-x="117.25" target-y="48.23"></path><path d="M 124.69 46.58 C 124.08 45.35 122.88 45.01 121.69 44.58 C 122.06 44.38 122.43 44.17 122.81 43.99 C 123.56 43.57 124.50 43.76 125.02 44.44 C 125.30 44.75 125.42 45.17 125.36 45.59 C 125.29 46.00 125.05 46.36 124.69 46.58 Z" fill="#b92224" fill-rule="nonzero" group-id="1" node-id="158" stroke="none" target-height="3.0100021" target-width="3.7299957" target-x="121.69" target-y="43.57"></path><path d="M 67.00 55.90 C 66.44 56.63 65.45 56.89 64.61 56.52 C 63.81 55.95 63.45 54.95 63.71 54.00 C 63.84 52.14 64.50 50.36 65.61 48.86 C 67.37 47.86 68.61 48.34 68.79 50.37 C 68.97 52.38 68.32 54.38 67.00 55.90 Z" fill="#b81e22" fill-rule="nonzero" group-id="1" node-id="160" stroke="none" target-height="9.029999" target-width="5.5200005" target-x="63.45" target-y="47.86"></path><path d="M 67.00 55.90 C 67.43 54.62 67.89 53.35 68.27 52.05 C 68.97 49.65 67.94 48.46 65.58 48.90 C 66.32 47.36 67.53 46.09 69.02 45.26 C 70.44 45.36 70.91 46.45 71.29 47.54 C 71.58 48.33 71.72 49.16 71.70 50.00 C 70.75 52.43 69.46 54.61 67.00 55.90 Z" fill="#7f1a1e" fill-rule="nonzero" group-id="1" node-id="162" stroke="none" target-height="10.640003" target-width="6.1399994" target-x="65.58" target-y="45.26"></path><path d="M 71.70 50.00 C 70.84 49.00 71.32 47.48 70.39 46.51 C 69.97 46.08 69.50 45.69 69.05 45.28 C 69.79 44.57 70.75 44.01 71.65 44.55 C 72.63 45.20 73.04 46.44 72.65 47.55 C 72.38 48.40 72.00 49.18 71.70 50.00 Z" fill="#b92124" fill-rule="nonzero" group-id="1" node-id="164" stroke="none" target-height="5.9900017" target-width="3.9899979" target-x="69.05" target-y="44.01"></path><path d="M 130.00 84.80 C 130.26 86.91 129.21 88.80 128.79 90.73 C 128.72 91.05 128.25 91.43 128.94 91.61 C 128.78 91.84 128.51 91.98 128.23 91.99 C 127.95 92.01 127.67 91.89 127.49 91.67 C 127.08 91.27 126.99 90.65 127.27 90.15 C 128.15 88.37 129.05 86.59 130.00 84.80 Z" fill="#b82124" fill-rule="nonzero" group-id="1" node-id="166" stroke="none" target-height="7.209999" target-width="3.2699966" target-x="126.99" target-y="84.8"></path><path d="M 114.05 87.69 C 113.24 89.30 112.41 90.89 110.36 91.19 C 110.00 90.78 110.22 90.36 110.36 89.94 C 110.77 88.72 110.67 87.38 110.09 86.23 C 110.41 85.06 111.08 84.01 112.01 83.23 C 113.80 83.73 114.55 85.35 114.05 87.69 Z" fill="#7f1a1e" fill-rule="nonzero" group-id="1" node-id="168" stroke="none" target-height="7.959999" target-width="4.550003" target-x="110" target-y="83.23"></path><path d="M 114.05 87.69 C 113.94 85.93 113.64 84.26 111.99 83.22 C 112.59 82.41 113.27 81.55 114.40 82.10 C 115.53 82.65 115.32 83.67 115.17 84.68 C 115.04 85.76 114.66 86.79 114.05 87.69 Z" fill="#b92124" fill-rule="nonzero" group-id="1" node-id="170" stroke="none" target-height="6.1399994" target-width="3.540001" target-x="111.99" target-y="81.55"></path><path d="M 110.07 86.23 C 111.70 87.13 110.94 88.58 110.86 89.84 C 110.76 90.31 110.59 90.77 110.36 91.19 C 108.60 90.35 109.44 88.86 109.51 87.59 C 109.62 87.11 109.81 86.65 110.07 86.23 Z" fill="#b81e23" fill-rule="nonzero" group-id="1" node-id="172" stroke="none" target-height="4.959999" target-width="3.0999985" target-x="108.6" target-y="86.23"></path></g></svg>